<?xml version="1.0" encoding="utf-8"?>
<!-- Generator: Adobe Illustrator 25.4.1, SVG Export Plug-In . SVG Version: 6.00 Build 0)  -->
<svg version="1.1" id="图层_2" xmlns="http://www.w3.org/2000/svg" xmlns:xlink="http://www.w3.org/1999/xlink" x="0px" y="0px"
	 viewBox="0 0 100 100" style="enable-background:new 0 0 100 100;" xml:space="preserve">
<style type="text/css">
	.st0{fill:#FFFFFF;stroke:#000000;stroke-width:0.2396;stroke-miterlimit:10;}
	.st1{fill:#46B5DE;stroke:#000000;stroke-width:0.2228;stroke-miterlimit:10;}
	.st2{fill:#E5B3A1;}
	.st3{fill:#912322;}
	.st4{fill:#FFFFFF;}
	.st5{fill:none;stroke:#000000;stroke-miterlimit:10;}
	.st6{stroke:#000000;stroke-width:0.5;stroke-miterlimit:10;}
</style>
<polygon class="st0" points="50,97.98 75.05,54.59 100.1,10.31 50,10.31 -0.1,10.31 24.95,54.59 "/>
<polygon class="st1" points="50,94.04 73.29,53.7 96.59,12.46 50,12.46 3.41,12.46 26.71,53.7 "/>
<path class="st2" d="M44.87,27.54v35h-8.42l-0.14-32.86 M36.31,29.68l8.57-2.14"/>
<path class="st3" d="M55.27,56.46c0,0,4.7-12.36-4.71-20.99l4.15-7.22c0,0,9.63,5.73,7.6,14.75 M55.3,56.51
	c0,0,7.23-10.91,19.43-7.12l4.15-7.22c0,0-9.8-5.43-16.57,0.87"/>
<path class="st4" d="M40.36,29.26c-0.92,0.26-1.83,0.5-2.74,0.71c-7.9,1.87-19.53-1.1-19.53-1.1l0.07-7.77c0,0,9.5,3.56,18.6,0.96
	c7.81-2.23,18.87-5.23,26.29-5.59c7.33-0.35,18.92,3.27,18.92,3.27v7.56c0,0-12.82-3.91-19.94-3.58
	C55.39,24.01,47.63,27.22,40.36,29.26"/>
<g>
	<g>
		<line class="st5" x1="833.35" y1="-407.62" x2="835.44" y2="-407.62"/>
		<g>
			<g>
				<line class="st5" x1="833.35" y1="-407.62" x2="833.35" y2="-407.67"/>
				<line class="st5" x1="835.44" y1="-407.62" x2="835.44" y2="-407.67"/>
			</g>
			<g>
			</g>
		</g>
	</g>
	<g>
		<g>
			<text transform="matrix(1 0 0 1 832.7412 -407.4312)" style="font-family:'AdobeSongStd-Light-GBpc-EUC-H'; font-size:0.5px;">0.0</text>
			<text transform="matrix(1 0 0 1 832.7412 -407.0313)" style="font-family:'AdobeSongStd-Light-GBpc-EUC-H'; font-size:0.5px;">0.2</text>
			<text transform="matrix(1 0 0 1 832.7412 -406.6314)" style="font-family:'AdobeSongStd-Light-GBpc-EUC-H'; font-size:0.5px;">0.4</text>
			<text transform="matrix(1 0 0 1 832.7412 -406.2315)" style="font-family:'AdobeSongStd-Light-GBpc-EUC-H'; font-size:0.5px;">0.6</text>
			<text transform="matrix(1 0 0 1 832.7412 -405.8311)" style="font-family:'AdobeSongStd-Light-GBpc-EUC-H'; font-size:0.5px;">0.8</text>
			<text transform="matrix(1 0 0 1 832.7412 -405.4312)" style="font-family:'AdobeSongStd-Light-GBpc-EUC-H'; font-size:0.5px;">1.0</text>
		</g>
		<line class="st5" x1="833.35" y1="-407.62" x2="833.35" y2="-405.62"/>
		<g>
			<g>
				<line class="st5" x1="833.35" y1="-407.62" x2="833.41" y2="-407.62"/>
				<line class="st5" x1="833.35" y1="-407.22" x2="833.41" y2="-407.22"/>
				<line class="st5" x1="833.35" y1="-406.82" x2="833.41" y2="-406.82"/>
				<line class="st5" x1="833.35" y1="-406.42" x2="833.41" y2="-406.42"/>
				<line class="st5" x1="833.35" y1="-406.02" x2="833.41" y2="-406.02"/>
				<line class="st5" x1="833.35" y1="-405.62" x2="833.41" y2="-405.62"/>
			</g>
			<g>
			</g>
		</g>
	</g>
	<g>
		<g>
			<g>
				<rect x="833.65" y="-407.62" class="st6" width="1.5" height="2"/>
			</g>
		</g>
	</g>
	<g>
		<g>
		</g>
	</g>
</g>
</svg>
